<mxfile modified="2023-03-14T10:08:07.878Z" host="app.diagrams.net" agent="5.0 (Macintosh)" etag="hjeA62LgUaFz_SXkjwRl" version="21.0.6" type="github">
  <diagram id="7gcUSTIZ7YSJ5vT40chW" name="Page-1">
    <mxGraphModel dx="989" dy="632" grid="1" gridSize="10" guides="1" tooltips="1" connect="1" arrows="1" fold="1" page="1" pageScale="1" pageWidth="1169" pageHeight="827" math="0" shadow="0">
      <root>
        <mxCell id="0" />
        <mxCell id="1" parent="0" />
        <mxCell id="PJzwjlF8BGioMPFh3BJd-10" style="edgeStyle=orthogonalEdgeStyle;rounded=0;orthogonalLoop=1;jettySize=auto;html=1;entryX=1.006;entryY=0.511;entryDx=0;entryDy=0;entryPerimeter=0;strokeColor=#666666;" edge="1" parent="1" target="PJzwjlF8BGioMPFh3BJd-9">
          <mxGeometry relative="1" as="geometry">
            <mxPoint x="665" y="290" as="sourcePoint" />
            <Array as="points">
              <mxPoint x="665" y="374" />
            </Array>
          </mxGeometry>
        </mxCell>
        <mxCell id="PJzwjlF8BGioMPFh3BJd-11" value="Item Created" style="edgeLabel;html=1;align=center;verticalAlign=middle;resizable=0;points=[];fontStyle=2" vertex="1" connectable="0" parent="PJzwjlF8BGioMPFh3BJd-10">
          <mxGeometry x="0.0728" relative="1" as="geometry">
            <mxPoint x="-39" as="offset" />
          </mxGeometry>
        </mxCell>
        <mxCell id="SZY12_XKgGBlkoAp8IEY-6" value="CosmosDB" style="aspect=fixed;html=1;perimeter=none;align=center;shadow=0;dashed=0;image;fontSize=12;image=img/lib/mscae/CosmosDB.svg;" parent="1" vertex="1">
          <mxGeometry x="640" y="220.5" width="50" height="50" as="geometry" />
        </mxCell>
        <mxCell id="PJzwjlF8BGioMPFh3BJd-3" style="edgeStyle=orthogonalEdgeStyle;rounded=0;orthogonalLoop=1;jettySize=auto;html=1;entryX=0.986;entryY=0.402;entryDx=0;entryDy=0;entryPerimeter=0;exitX=0.02;exitY=0.489;exitDx=0;exitDy=0;exitPerimeter=0;strokeColor=#666666;" edge="1" parent="1" source="SZY12_XKgGBlkoAp8IEY-8" target="PJzwjlF8BGioMPFh3BJd-2">
          <mxGeometry relative="1" as="geometry" />
        </mxCell>
        <mxCell id="PJzwjlF8BGioMPFh3BJd-24" value="&lt;i&gt;Events Fetch&lt;/i&gt;" style="edgeLabel;html=1;align=center;verticalAlign=middle;resizable=0;points=[];" vertex="1" connectable="0" parent="PJzwjlF8BGioMPFh3BJd-3">
          <mxGeometry x="0.0221" y="-1" relative="1" as="geometry">
            <mxPoint as="offset" />
          </mxGeometry>
        </mxCell>
        <mxCell id="PJzwjlF8BGioMPFh3BJd-7" style="edgeStyle=orthogonalEdgeStyle;rounded=0;orthogonalLoop=1;jettySize=auto;html=1;entryX=-0.1;entryY=0.53;entryDx=0;entryDy=0;entryPerimeter=0;exitX=1.053;exitY=0.489;exitDx=0;exitDy=0;exitPerimeter=0;strokeColor=#666666;" edge="1" parent="1" source="SZY12_XKgGBlkoAp8IEY-8" target="SZY12_XKgGBlkoAp8IEY-6">
          <mxGeometry relative="1" as="geometry" />
        </mxCell>
        <mxCell id="PJzwjlF8BGioMPFh3BJd-23" value="&lt;i&gt;Events Store&lt;/i&gt;" style="edgeLabel;html=1;align=center;verticalAlign=middle;resizable=0;points=[];" vertex="1" connectable="0" parent="PJzwjlF8BGioMPFh3BJd-7">
          <mxGeometry x="-0.1087" y="-1" relative="1" as="geometry">
            <mxPoint y="-2" as="offset" />
          </mxGeometry>
        </mxCell>
        <mxCell id="SZY12_XKgGBlkoAp8IEY-8" value="StoreEventsTimer" style="aspect=fixed;html=1;perimeter=none;align=center;shadow=0;dashed=0;image;fontSize=12;image=img/lib/mscae/Functions.svg;" parent="1" vertex="1">
          <mxGeometry x="420" y="224.5" width="50" height="46" as="geometry" />
        </mxCell>
        <mxCell id="PJzwjlF8BGioMPFh3BJd-1" value="5min" style="html=1;verticalLabelPosition=bottom;align=center;labelBackgroundColor=#ffffff;verticalAlign=top;strokeWidth=2;strokeColor=#0080F0;shadow=0;dashed=0;shape=mxgraph.ios7.icons.gauge;" vertex="1" parent="1">
          <mxGeometry x="387.6" y="189" width="32.4" height="31.5" as="geometry" />
        </mxCell>
        <mxCell id="PJzwjlF8BGioMPFh3BJd-2" value="Events Publication Website" style="verticalLabelPosition=bottom;html=1;verticalAlign=top;align=center;strokeColor=none;fillColor=#00BEF2;shape=mxgraph.azure.website_generic;pointerEvents=1;" vertex="1" parent="1">
          <mxGeometry x="200" y="220.5" width="70" height="66" as="geometry" />
        </mxCell>
        <mxCell id="PJzwjlF8BGioMPFh3BJd-14" style="edgeStyle=orthogonalEdgeStyle;rounded=0;orthogonalLoop=1;jettySize=auto;html=1;exitX=-0.028;exitY=0.511;exitDx=0;exitDy=0;exitPerimeter=0;strokeColor=#666666;" edge="1" parent="1" source="PJzwjlF8BGioMPFh3BJd-9" target="PJzwjlF8BGioMPFh3BJd-13">
          <mxGeometry relative="1" as="geometry" />
        </mxCell>
        <mxCell id="PJzwjlF8BGioMPFh3BJd-15" value="&lt;i&gt;Events Publish&lt;br&gt;&lt;/i&gt;" style="edgeLabel;html=1;align=center;verticalAlign=middle;resizable=0;points=[];" vertex="1" connectable="0" parent="PJzwjlF8BGioMPFh3BJd-14">
          <mxGeometry x="0.31" y="1" relative="1" as="geometry">
            <mxPoint x="22" y="-1" as="offset" />
          </mxGeometry>
        </mxCell>
        <mxCell id="PJzwjlF8BGioMPFh3BJd-9" value="CompareEvents" style="aspect=fixed;html=1;perimeter=none;align=center;shadow=0;dashed=0;image;fontSize=12;image=img/lib/mscae/Functions.svg;" vertex="1" parent="1">
          <mxGeometry x="420" y="350" width="50" height="46" as="geometry" />
        </mxCell>
        <mxCell id="PJzwjlF8BGioMPFh3BJd-12" value="Storage Account Queue" style="verticalLabelPosition=bottom;html=1;verticalAlign=top;align=center;strokeColor=none;fillColor=#00BEF2;shape=mxgraph.azure.storage_queue;" vertex="1" parent="1">
          <mxGeometry x="420" y="478.75" width="50" height="45" as="geometry" />
        </mxCell>
        <mxCell id="PJzwjlF8BGioMPFh3BJd-13" value="Event Grid" style="sketch=0;aspect=fixed;html=1;points=[];align=center;image;fontSize=12;image=img/lib/mscae/Event_Grid_Topics.svg;" vertex="1" parent="1">
          <mxGeometry x="200" y="348" width="50" height="50" as="geometry" />
        </mxCell>
        <mxCell id="PJzwjlF8BGioMPFh3BJd-17" style="edgeStyle=orthogonalEdgeStyle;rounded=0;orthogonalLoop=1;jettySize=auto;html=1;" edge="1" parent="1" source="PJzwjlF8BGioMPFh3BJd-16">
          <mxGeometry relative="1" as="geometry">
            <mxPoint x="226" y="420" as="targetPoint" />
          </mxGeometry>
        </mxCell>
        <mxCell id="PJzwjlF8BGioMPFh3BJd-18" style="edgeStyle=orthogonalEdgeStyle;rounded=0;orthogonalLoop=1;jettySize=auto;html=1;entryX=0;entryY=0.5;entryDx=0;entryDy=0;entryPerimeter=0;strokeColor=#666666;" edge="1" parent="1" source="PJzwjlF8BGioMPFh3BJd-16" target="PJzwjlF8BGioMPFh3BJd-12">
          <mxGeometry relative="1" as="geometry" />
        </mxCell>
        <mxCell id="PJzwjlF8BGioMPFh3BJd-19" value="&lt;i&gt;Message Create&lt;/i&gt;" style="edgeLabel;html=1;align=center;verticalAlign=middle;resizable=0;points=[];" vertex="1" connectable="0" parent="PJzwjlF8BGioMPFh3BJd-18">
          <mxGeometry x="-0.0799" relative="1" as="geometry">
            <mxPoint as="offset" />
          </mxGeometry>
        </mxCell>
        <mxCell id="PJzwjlF8BGioMPFh3BJd-16" value="Event Subscription" style="aspect=fixed;html=1;points=[];align=center;image;fontSize=12;image=img/lib/azure2/integration/Event_Grid_Subscriptions.svg;" vertex="1" parent="1">
          <mxGeometry x="202.54" y="480" width="47.46" height="42.5" as="geometry" />
        </mxCell>
        <mxCell id="PJzwjlF8BGioMPFh3BJd-22" style="edgeStyle=orthogonalEdgeStyle;rounded=0;orthogonalLoop=1;jettySize=auto;html=1;entryX=1;entryY=0.5;entryDx=0;entryDy=0;entryPerimeter=0;exitX=-0.028;exitY=0.501;exitDx=0;exitDy=0;exitPerimeter=0;strokeColor=#666666;" edge="1" parent="1" source="PJzwjlF8BGioMPFh3BJd-21" target="PJzwjlF8BGioMPFh3BJd-12">
          <mxGeometry relative="1" as="geometry" />
        </mxCell>
        <mxCell id="PJzwjlF8BGioMPFh3BJd-25" value="&lt;i&gt;Message Trigger&lt;/i&gt;" style="edgeLabel;html=1;align=center;verticalAlign=middle;resizable=0;points=[];" vertex="1" connectable="0" parent="PJzwjlF8BGioMPFh3BJd-22">
          <mxGeometry x="-0.0876" relative="1" as="geometry">
            <mxPoint as="offset" />
          </mxGeometry>
        </mxCell>
        <mxCell id="PJzwjlF8BGioMPFh3BJd-28" style="edgeStyle=orthogonalEdgeStyle;rounded=0;orthogonalLoop=1;jettySize=auto;html=1;entryX=0.5;entryY=0;entryDx=0;entryDy=0;" edge="1" parent="1" target="PJzwjlF8BGioMPFh3BJd-27">
          <mxGeometry relative="1" as="geometry">
            <mxPoint x="665" y="550" as="sourcePoint" />
          </mxGeometry>
        </mxCell>
        <mxCell id="PJzwjlF8BGioMPFh3BJd-29" value="&lt;i&gt;Email Send&lt;/i&gt;" style="edgeLabel;html=1;align=center;verticalAlign=middle;resizable=0;points=[];" vertex="1" connectable="0" parent="PJzwjlF8BGioMPFh3BJd-28">
          <mxGeometry x="-0.1671" y="1" relative="1" as="geometry">
            <mxPoint as="offset" />
          </mxGeometry>
        </mxCell>
        <mxCell id="PJzwjlF8BGioMPFh3BJd-21" value="EventNotification" style="aspect=fixed;html=1;perimeter=none;align=center;shadow=0;dashed=0;image;fontSize=12;image=img/lib/mscae/Functions.svg;" vertex="1" parent="1">
          <mxGeometry x="640" y="478.75" width="50" height="46" as="geometry" />
        </mxCell>
        <mxCell id="PJzwjlF8BGioMPFh3BJd-27" value="" style="shape=image;html=1;verticalAlign=top;verticalLabelPosition=bottom;labelBackgroundColor=#ffffff;imageAspect=0;aspect=fixed;image=https://cdn0.iconfinder.com/data/icons/picons-social/57/67-gmail-128.png" vertex="1" parent="1">
          <mxGeometry x="640" y="590" width="50" height="50" as="geometry" />
        </mxCell>
      </root>
    </mxGraphModel>
  </diagram>
</mxfile>
